Abduction_states
version=1
nRows=14
nColumns=41
inDegrees=yes

# SIMM Motion File Header:
name Abduction_states
datacolumns 41
datarows 14
otherdata 1
range 2.07811708 4.28716868
endheader
time	/jointset/ground_thorax/thorax_tilt/value	/jointset/ground_thorax/thorax_tilt/speed	/jointset/ground_thorax/thorax_list/value	/jointset/ground_thorax/thorax_list/speed	/jointset/ground_thorax/thorax_rotation/value	/jointset/ground_thorax/thorax_rotation/speed	/jointset/ground_thorax/thorax_tx/value	/jointset/ground_thorax/thorax_tx/speed	/jointset/ground_thorax/thorax_ty/value	/jointset/ground_thorax/thorax_ty/speed	/jointset/ground_thorax/thorax_tz/value	/jointset/ground_thorax/thorax_tz/speed	/jointset/sternoclavicular/sternoclavicular_r2/value	/jointset/sternoclavicular/sternoclavicular_r2/speed	/jointset/sternoclavicular/sternoclavicular_r3/value	/jointset/sternoclavicular/sternoclavicular_r3/speed	/jointset/unrotscap/unrotscap_r3/value	/jointset/unrotscap/unrotscap_r3/speed	/jointset/unrotscap/unrotscap_r2/value	/jointset/unrotscap/unrotscap_r2/speed	/jointset/acromioclavicular/acromioclavicular_r2/value	/jointset/acromioclavicular/acromioclavicular_r2/speed	/jointset/acromioclavicular/acromioclavicular_r3/value	/jointset/acromioclavicular/acromioclavicular_r3/speed	/jointset/acromioclavicular/acromioclavicular_r1/value	/jointset/acromioclavicular/acromioclavicular_r1/speed	/jointset/unrothum/unrothum_r1/value	/jointset/unrothum/unrothum_r1/speed	/jointset/unrothum/unrothum_r3/value	/jointset/unrothum/unrothum_r3/speed	/jointset/unrothum/unrothum_r2/value	/jointset/unrothum/unrothum_r2/speed	/jointset/shoulder0/elv_angle/value	/jointset/shoulder0/elv_angle/speed	/jointset/shoulder1/shoulder_elv/value	/jointset/shoulder1/shoulder_elv/speed	/jointset/shoulder1/shoulder1_r2/value	/jointset/shoulder1/shoulder1_r2/speed	/jointset/shoulder2/shoulder_rot/value	/jointset/shoulder2/shoulder_rot/speed
      2.07811708	     -0.00000000	      0.00000000	     -0.00000000	     -0.00000000	     -0.00000000	     -0.00000000	     -0.00000000	     -0.00000000	      0.00000000	     -0.00000000	     -0.00000000	     -0.00000000	    -16.12255498	     16.94605949	      6.82874797	     -7.17754534	     -6.82874797	      7.17754534	     16.12255498	    -16.94605949	     -3.26446429	      3.43120592	     26.38190001	    -27.72942921	     11.85874930	    -12.46446804	    -11.85874930	     12.46446804	    -26.38190001	     27.72942921	      3.26446429	     -3.43120592	     30.00000000	     -0.00000000	     66.62275897	    -70.02570239	    -30.00000000	      0.00000000	      0.00000000	      0.00000000
      2.13466616	     -0.00000000	      0.00000000	     -0.00000000	     -0.00000000	     -0.00000000	     -0.00000000	     -0.00000000	     -0.00000000	      0.00000000	     -0.00000000	     -0.00000000	     -0.00000000	    -15.14641416	     17.42084702	      6.41530111	     -7.37864276	     -6.41530111	      7.37864276	     15.14641416	    -17.42084702	     -3.06681716	      3.52734000	     24.78460668	    -28.50634062	     11.14076079	    -12.81369223	    -11.14076079	     12.81369223	    -24.78460668	     28.50634062	      3.06681716	     -3.52734000	     30.00000000	     -0.00000000	     62.58908102	    -71.98765289	    -30.00000000	      0.00000000	      0.00000000	      0.00000000
      2.19121525	     -0.00000000	      0.00000000	     -0.00000000	     -0.00000000	     -0.00000000	     -0.00000000	     -0.00000000	     -0.00000000	      0.00000000	     -0.00000000	     -0.00000000	     -0.00000000	    -14.16534819	     17.19540905	      5.99976820	     -7.28315796	     -5.99976820	      7.28315796	     14.16534819	    -17.19540905	     -2.86817278	      3.48169375	     23.17925415	    -28.13744860	     10.41914964	    -12.64787407	    -10.41914964	     12.64787407	    -23.17925415	     28.13744860	      2.86817278	     -3.48169375	     30.00000000	     -0.00000000	     58.53505098	    -71.05608222	    -30.00000000	      0.00000000	      0.00000000	      0.00000000
      2.24776433	     -0.00000000	      0.00000000	     -0.00000000	     -0.00000000	     -0.00000000	     -0.00000000	     -0.00000000	     -0.00000000	      0.00000000	     -0.00000000	     -0.00000000	     -0.00000000	    -13.20795011	     16.62841605	      5.59425988	     -7.04300667	     -5.59425988	      7.04300667	     13.20795011	    -16.62841605	     -2.67432064	      3.36689008	     21.61263023	    -27.20965815	      9.71494713	    -12.23082927	     -9.71494713	     12.23082927	    -21.61263023	     27.20965815	      2.67432064	     -3.36689008	     30.00000000	     -0.00000000	     54.57882313	    -68.71311377	    -30.00000000	      0.00000000	      0.00000000	      0.00000000
      2.30431342	     -0.00000000	      0.00000000	     -0.00000000	     -0.00000000	     -0.00000000	     -0.00000000	     -0.00000000	     -0.00000000	      0.00000000	     -0.00000000	     -0.00000000	     -0.00000000	    -12.28740476	     15.91392422	      5.20436062	     -6.74038189	     -5.20436062	      6.74038189	     12.28740476	    -15.91392422	     -2.48793036	      3.22222113	     20.10630970	    -26.04051019	      9.03785118	    -11.70529348	     -9.03785118	     11.70529348	    -20.10630970	     26.04051019	      2.48793036	     -3.22222113	     30.00000000	     -0.00000000	     50.77488068	    -65.76064019	    -30.00000000	      0.00000000	      0.00000000	      0.00000000
      2.37661314	     -0.00000000	      0.00000000	     -0.00000000	     -0.00000000	     -0.00000000	     -0.00000000	     -0.00000000	     -0.00000000	      0.00000000	     -0.00000000	     -0.00000000	     -0.00000000	    -11.17239135	     14.92224433	      4.73209394	     -6.32035343	     -4.73209394	      6.32035343	     11.17239135	    -14.92224433	     -2.26216457	      3.02142767	     18.28177430	    -24.41778975	      8.21771663	    -10.97587540	     -8.21771663	     10.97587540	    -18.28177430	     24.41778975	      2.26216457	     -3.02142767	     30.00000000	     -0.00000000	     46.16734361	    -61.66275063	    -30.00000000	      0.00000000	      0.00000000	      0.00000000
      2.46683547	     -0.00000000	     -0.00000000	     -0.00000000	     -0.00000000	     -0.00000000	     -0.00000000	     -0.00000000	     -0.00000000	      0.00000000	     -0.00000000	     -0.00000000	     -0.00000000	     -9.88326281	     13.65233212	      4.18608036	     -5.78247897	     -4.18608036	      5.78247897	      9.88326281	    -13.65233212	     -2.00114427	      2.76429826	     16.17232824	    -22.33978803	      7.26951380	    -10.04180691	     -7.26951380	     10.04180691	    -16.17232824	     22.33978803	      2.00114427	     -2.76429826	     30.00000000	     -0.00000000	     40.84031575	    -56.41512980	    -30.00000000	      0.00000000	      0.00000000	      0.00000000
      2.59069591	     -0.00000000	     -0.00000000	     -0.00000000	     -0.00000000	     -0.00000000	     -0.00000000	     -0.00000000	     -0.00000000	     -0.00000000	     -0.00000000	     -0.00000000	     -0.00000000	     -8.30044708	     11.90722829	      3.51567485	     -5.04333594	     -3.51567485	      5.04333594	      8.30044708	    -11.90722829	     -1.68065875	      2.41095296	     13.58231156	    -19.48421367	      6.10529293	     -8.75821701	     -6.10529293	      8.75821701	    -13.58231156	     19.48421367	      1.68065875	     -2.41095296	     30.00000000	     -0.00000000	     34.29969293	    -49.20388867	    -30.00000000	      0.00000000	      0.00000000	      0.00000000
      2.78490724	     -0.00000000	     -0.00000000	     -0.00000000	     -0.00000000	     -0.00000000	     -0.00000000	     -0.00000000	     -0.00000000	     -0.00000000	     -0.00000000	     -0.00000000	     -0.00000000	     -6.25156682	      9.19878610	      2.64786656	     -3.89616856	     -2.64786656	      3.89616856	      6.25156682	     -9.19878610	     -1.26580537	      1.86255273	     10.22965720	    -15.05229508	      4.59826397	     -6.76605528	     -4.59826397	      6.76605528	    -10.22965720	     15.05229508	      1.26580537	     -1.86255273	     30.00000000	     -0.00000000	     25.83316538	    -38.01187278	    -30.00000000	      0.00000000	      0.00000000	      0.00000000
      3.16428569	     -0.00000000	     -0.00000000	     -0.00000000	      0.00000000	     -0.00000000	     -0.00000000	     -0.00000000	      0.00000000	     -0.00000000	     -0.00000000	     -0.00000000	     -0.00000000	     -3.74747771	      4.03022762	      1.58725344	     -1.70701286	     -1.58725344	      1.70701286	      3.74747771	     -4.03022762	     -0.75878217	      0.81603283	      6.13212871	     -6.59480227	      2.75641167	     -2.96438493	     -2.75641167	      2.96438493	     -6.13212871	      6.59480227	      0.75878217	     -0.81603283	     30.00000000	     -0.00000000	     15.48559175	    -16.65399087	    -30.00000000	      0.00000000	      0.00000000	      0.00000000
      3.82964555	     -0.00000000	     -0.00000000	     -0.00000000	     -0.00000000	     -0.00000000	     -0.00000000	     -0.00000000	     -0.00000000	     -0.00000000	     -0.00000000	     -0.00000000	     -0.00000000	     -3.97213087	     -4.61517030	      1.68240584	      1.95476678	     -1.68240584	     -1.95476678	      3.97213087	      4.61517030	     -0.80426951	     -0.93447091	      6.49973652	      7.55196441	      2.92165257	      3.39463240	     -2.92165257	     -3.39463240	     -6.49973652	     -7.55196441	      0.80426951	      0.93447091	     30.00000000	     -0.00000000	     16.41391936	     19.07113227	    -30.00000000	      0.00000000	      0.00000000	      0.00000000
      4.00594798	     -0.00000000	     -0.00000000	     -0.00000000	     -0.00000000	     -0.00000000	     -0.00000000	     -0.00000000	     -0.00000000	     -0.00000000	     -0.00000000	     -0.00000000	     -0.00000000	     -4.98023995	     -6.81447846	      2.10939293	      2.88628917	     -2.10939293	     -2.88628917	      4.98023995	      6.81447846	     -1.00838952	     -1.37978265	      8.14934063	     11.15076918	      3.66315495	      5.01230678	     -3.66315495	     -5.01230678	     -8.14934063	    -11.15076918	      1.00838952	      1.37978265	     30.00000000	     -0.00000000	     20.57969881	     28.15926857	    -30.00000000	      0.00000000	      0.00000000	      0.00000000
      4.17004638	     -0.00000000	     -0.00000000	     -0.00000000	     -0.00000000	     -0.00000000	     -0.00000000	     -0.00000000	     -0.00000000	     -0.00000000	     -0.00000000	     -0.00000000	     -0.00000000	     -6.26401824	     -8.82621660	      2.65314039	      3.73836583	     -2.65314039	     -3.73836583	      6.26401824	      8.82621660	     -1.26832651	     -1.78711556	     10.25003190	     14.44264659	      4.60742246	      6.49201631	     -4.60742246	     -6.49201631	    -10.25003190	    -14.44264659	      1.26832651	      1.78711556	     30.00000000	     -0.00000000	     25.88461803	     36.47231481	    -30.00000000	      0.00000000	      0.00000000	     -0.00000000
      4.28716868	     -0.00000000	     -0.00000000	     -0.00000000	     -0.00000000	     -0.00000000	     -0.00000000	     -0.00000000	     -0.00000000	     -0.00000000	     -0.00000000	     -0.00000000	     -0.00000000	     -7.38077413	    -10.24066774	      3.12614511	      4.33746011	     -3.12614511	     -4.33746011	      7.38077413	     10.24066774	     -1.49444512	     -2.07351094	     12.07741858	     16.75716242	      5.42883868	      7.53239866	     -5.42883868	     -7.53239866	    -12.07741858	    -16.75716242	      1.49444512	      2.07351094	     30.00000000	     -0.00000000	     30.49935549	     42.31720962	    -30.00000000	      0.00000000	      0.00000000	     -0.00000000
